# xmcd
# 
# Track frame offsets:
#     150
#     17354
#     42345
#     57070
#     74803
#     91694
#     110385
#     131655
#     146587
#     159807
#     172712
#     186249
#     221167
# 
# Disc length: 2953
# 
# Revision: 2
# Processed by: cddbd v1.5.2PL0 Copyright (c) Steve Scherf et al.
# Submitted via: fre:ac v1.0.27
# 
DISCID=ab0b870d
DTITLE=Patty Loveless - Dreamin' My Dreams
DYEAR=2005
DGENRE=Country-influenced Rock
TTITLE0=Keep Your Distance
TTITLE1=Old Soul
TTITLE2=When Being Who You Are Is Not Enough
TTITLE3=Nobody Here By That Name
TTITLE4=Same Kind Of Crazy
TTITLE5=Everything But The Words
TTITLE6=Dreaming My Dreams With You
TTITLE7=On The Verge Of Tears
TTITLE8=Never Ending Song Of Love
TTITLE9=Big Chance
TTITLE10=My Old Friend The Blues
TTITLE11=When I Reach The Place I'm Going
TTITLE12=Bonus
EXTD=
EXTT0=
EXTT1=
EXTT2=
EXTT3=
EXTT4=
EXTT5=
EXTT6=
EXTT7=
EXTT8=
EXTT9=
EXTT10=
EXTT11=
EXTT12=
PLAYORDER=
